<?xml version="1.0" encoding="utf-8"?>
<svg xmlns="http://www.w3.org/2000/svg" xmlns:xlink="http://www.w3.org/1999/xlink">
  <text x="100" y="40" text-anchor="start" font-size="26" fill="black">Expression profile of cI</text>
  <text x="950" y="610" text-anchor="end" font-size="18" fill="black">Measurements</text>
  <text x="20" y="300" text-anchor="middle" style="font-size:18;writing-mode:tb;glyph-orientation-vertical:0" fill="black">cI activity level</text>
  <rect width="30" height="530" x="60" y="60" style="stroke:rgb(50,50,50);stroke-width:0.25;fill:rgb(135,200,210);opacity:0.4" />
  <text x="60" y="585" text-anchor="middle" fill="black">(0,0,0,0)</text>
  <line x1="60" x2="60" y1="60" y2="570" style="stroke:rgb(50,50,50);stroke-opacity:0.5;stroke-width:0.25" />
  <rect width="60" height="530" x="530" y="60" style="stroke:rgb(50,50,50);stroke-width:0.25;fill:rgb(135,200,210);opacity:0.4" />
  <text x="560" y="585" text-anchor="middle" fill="black">(2,0,1,1)</text>
  <line x1="560" x2="560" y1="60" y2="570" style="stroke:rgb(50,50,50);stroke-opacity:0.5;stroke-width:0.25" />
  <rect width="60" height="530" x="1030" y="60" style="stroke:rgb(50,50,50);stroke-width:0.25;fill:rgb(135,200,210);opacity:0.4" />
  <text x="1060" y="585" text-anchor="middle" fill="black">(2,0,0,0)</text>
  <line x1="1060" x2="1060" y1="60" y2="570" style="stroke:rgb(50,50,50);stroke-opacity:0.5;stroke-width:0.25" />
  <text x="58" y="560" text-anchor="end" fill="black">0</text>
  <line x1="60" x2="1060" y1="560" y2="560" style="stroke:rgb(50,50,50);stroke-opacity:0.5;stroke-width:0.25" />
  <text x="58" y="310" text-anchor="end" fill="black">1</text>
  <line x1="60" x2="1060" y1="310" y2="310" style="stroke:rgb(50,50,50);stroke-opacity:0.5;stroke-width:0.25" />
  <text x="58" y="60" text-anchor="end" fill="black">2</text>
  <line x1="60" x2="1060" y1="60" y2="60" style="stroke:rgb(50,50,50);stroke-opacity:0.5;stroke-width:0.25" />
  <line x1="60" x2="1060" y1="570" y2="570" style="stroke:rgb(50,50,50);stroke-width:3" />
  <line x1="60" x2="60" y1="60" y2="570" style="stroke:rgb(50,50,50);stroke-width:3" />
  <line x1="60" x2="143" y1="560" y2="560" style="stroke:rgb(50,0,70);stroke-opacity:0,188;stroke-width:2" />
  <path d="M143,560 C156,560 163,535 170,510 L199,360 C205,335 212,310 226,310" style="stroke:rgb(50,0,70);stroke-opacity:0,052;stroke-width:2;fill:none" />
  <line x1="226" x2="310" y1="310" y2="310" style="stroke:rgb(50,0,70);stroke-opacity:0,109;stroke-width:2" />
  <line x1="310" x2="393" y1="310" y2="310" style="stroke:rgb(50,0,70);stroke-opacity:0,076;stroke-width:2" />
  <path d="M393,310 C406,310 413,285 420,260 L449,110 C455,85 462,60 476,60" style="stroke:rgb(50,0,70);stroke-opacity:0,128;stroke-width:2;fill:none" />
  <line x1="476" x2="560" y1="60" y2="60" style="stroke:rgb(50,0,70);stroke-opacity:0,245;stroke-width:2" />
  <line x1="560" x2="810" y1="60" y2="60" style="stroke:rgb(50,0,70);stroke-opacity:0,148;stroke-width:2" />
  <line x1="810" x2="1060" y1="60" y2="60" style="stroke:rgb(50,0,70);stroke-opacity:0,148;stroke-width:2" />
  <line x1="143" x2="226" y1="560" y2="560" style="stroke:rgb(50,0,70);stroke-opacity:0,136;stroke-width:2" />
  <path d="M226,560 C240,560 247,535 254,510 L282,360 C289,335 296,310 310,310" style="stroke:rgb(50,0,70);stroke-opacity:0,084;stroke-width:2;fill:none" />
  <line x1="226" x2="310" y1="560" y2="560" style="stroke:rgb(50,0,70);stroke-opacity:0,052;stroke-width:2" />
  <path d="M310,560 C323,560 330,535 337,510 L366,360 C372,335 379,310 393,310" style="stroke:rgb(50,0,70);stroke-opacity:0,052;stroke-width:2;fill:none" />
  <line x1="60" x2="110" y1="560" y2="560" style="stroke:rgb(50,0,70);stroke-opacity:0,659;stroke-width:2" />
  <path d="M110,560 C118,560 122,535 126,510 L144,360 C148,335 152,310 160,310" style="stroke:rgb(50,0,70);stroke-opacity:0,073;stroke-width:2;fill:none" />
  <line x1="160" x2="210" y1="310" y2="310" style="stroke:rgb(50,0,70);stroke-opacity:0,169;stroke-width:2" />
  <line x1="210" x2="260" y1="310" y2="310" style="stroke:rgb(50,0,70);stroke-opacity:0,234;stroke-width:2" />
  <line x1="260" x2="310" y1="310" y2="310" style="stroke:rgb(50,0,70);stroke-opacity:0,367;stroke-width:2" />
  <line x1="310" x2="360" y1="310" y2="310" style="stroke:rgb(50,0,70);stroke-opacity:0,398;stroke-width:2" />
  <path d="M360,310 C368,310 372,285 376,260 L394,110 C398,85 402,60 410,60" style="stroke:rgb(50,0,70);stroke-opacity:0,562;stroke-width:2;fill:none" />
  <line x1="410" x2="460" y1="60" y2="60" style="stroke:rgb(50,0,70);stroke-opacity:0,755;stroke-width:2" />
  <line x1="460" x2="510" y1="60" y2="60" style="stroke:rgb(50,0,70);stroke-opacity:0,755;stroke-width:2" />
  <line x1="510" x2="560" y1="60" y2="60" style="stroke:rgb(50,0,70);stroke-opacity:0,755;stroke-width:2" />
  <line x1="110" x2="160" y1="560" y2="560" style="stroke:rgb(50,0,70);stroke-opacity:0,586;stroke-width:2" />
  <path d="M160,560 C168,560 172,535 176,510 L194,360 C198,335 202,310 210,310" style="stroke:rgb(50,0,70);stroke-opacity:0,065;stroke-width:2;fill:none" />
  <line x1="160" x2="210" y1="560" y2="560" style="stroke:rgb(50,0,70);stroke-opacity:0,521;stroke-width:2" />
  <path d="M210,560 C218,560 222,535 226,510 L244,360 C248,335 252,310 260,310" style="stroke:rgb(50,0,70);stroke-opacity:0,133;stroke-width:2;fill:none" />
  <line x1="210" x2="260" y1="560" y2="560" style="stroke:rgb(50,0,70);stroke-opacity:0,388;stroke-width:2" />
  <path d="M260,560 C268,560 272,535 276,510 L294,360 C298,335 302,310 310,310" style="stroke:rgb(50,0,70);stroke-opacity:0,225;stroke-width:2;fill:none" />
  <line x1="260" x2="310" y1="560" y2="560" style="stroke:rgb(50,0,70);stroke-opacity:0,164;stroke-width:2" />
  <path d="M310,560 C318,560 322,535 326,510 L344,360 C348,335 352,310 360,310" style="stroke:rgb(50,0,70);stroke-opacity:0,164;stroke-width:2;fill:none" />
  <path d="M60,560 C73,560 80,535 87,510 L116,360 C122,335 129,310 143,310" style="stroke:rgb(50,0,70);stroke-opacity:0,057;stroke-width:2;fill:none" />
  <line x1="143" x2="226" y1="310" y2="310" style="stroke:rgb(50,0,70);stroke-opacity:0,057;stroke-width:2" />
  <path d="M310,310 C323,310 330,285 337,260 L366,110 C372,85 379,60 393,60" style="stroke:rgb(50,0,70);stroke-opacity:0,117;stroke-width:2;fill:none" />
  <line x1="393" x2="476" y1="60" y2="60" style="stroke:rgb(50,0,70);stroke-opacity:0,117;stroke-width:2" />
  <path d="M560,60 C570,60 575,85 580,110 L602,260 C607,285 612,310 622,310" style="stroke:rgb(50,0,70);stroke-opacity:0,534;stroke-width:2;fill:none" />
  <line x1="622" x2="685" y1="310" y2="310" style="stroke:rgb(50,0,70);stroke-opacity:0,534;stroke-width:2" />
  <line x1="685" x2="747" y1="310" y2="310" style="stroke:rgb(50,0,70);stroke-opacity:0,534;stroke-width:2" />
  <line x1="747" x2="810" y1="310" y2="310" style="stroke:rgb(50,0,70);stroke-opacity:0,276;stroke-width:2" />
  <path d="M810,310 C820,310 825,285 830,260 L852,110 C857,85 862,60 872,60" style="stroke:rgb(50,0,70);stroke-opacity:0,276;stroke-width:2;fill:none" />
  <line x1="872" x2="935" y1="60" y2="60" style="stroke:rgb(50,0,70);stroke-opacity:0,534;stroke-width:2" />
  <line x1="935" x2="997" y1="60" y2="60" style="stroke:rgb(50,0,70);stroke-opacity:0,534;stroke-width:2" />
  <line x1="997" x2="1060" y1="60" y2="60" style="stroke:rgb(50,0,70);stroke-opacity:0,534;stroke-width:2" />
  <path d="M747,310 C757,310 762,285 768,260 L789,110 C794,85 799,60 810,60" style="stroke:rgb(50,0,70);stroke-opacity:0,258;stroke-width:2;fill:none" />
  <line x1="810" x2="872" y1="60" y2="60" style="stroke:rgb(50,0,70);stroke-opacity:0,258;stroke-width:2" />
  <path d="M60,560 C68,560 72,535 76,510 L94,360 C98,335 102,310 110,310" style="stroke:rgb(50,0,70);stroke-opacity:0,096;stroke-width:2;fill:none" />
  <line x1="110" x2="160" y1="310" y2="310" style="stroke:rgb(50,0,70);stroke-opacity:0,096;stroke-width:2" />
  <path d="M310,310 C318,310 322,285 326,260 L344,110 C348,85 352,60 360,60" style="stroke:rgb(50,0,70);stroke-opacity:0,193;stroke-width:2;fill:none" />
  <line x1="360" x2="410" y1="60" y2="60" style="stroke:rgb(50,0,70);stroke-opacity:0,193;stroke-width:2" />
  <path d="M560,60 C568,60 572,85 576,110 L594,260 C598,285 602,310 610,310" style="stroke:rgb(50,0,70);stroke-opacity:0,318;stroke-width:2;fill:none" />
  <line x1="610" x2="660" y1="310" y2="310" style="stroke:rgb(50,0,70);stroke-opacity:0,318;stroke-width:2" />
  <line x1="660" x2="710" y1="310" y2="310" style="stroke:rgb(50,0,70);stroke-opacity:0,318;stroke-width:2" />
  <line x1="710" x2="760" y1="310" y2="310" style="stroke:rgb(50,0,70);stroke-opacity:0,318;stroke-width:2" />
  <line x1="760" x2="810" y1="310" y2="310" style="stroke:rgb(50,0,70);stroke-opacity:0,140;stroke-width:2" />
  <path d="M810,310 C818,310 822,285 826,260 L844,110 C848,85 852,60 860,60" style="stroke:rgb(50,0,70);stroke-opacity:0,140;stroke-width:2;fill:none" />
  <line x1="860" x2="910" y1="60" y2="60" style="stroke:rgb(50,0,70);stroke-opacity:0,318;stroke-width:2" />
  <line x1="910" x2="960" y1="60" y2="60" style="stroke:rgb(50,0,70);stroke-opacity:0,318;stroke-width:2" />
  <line x1="960" x2="1010" y1="60" y2="60" style="stroke:rgb(50,0,70);stroke-opacity:0,318;stroke-width:2" />
  <line x1="1010" x2="1060" y1="60" y2="60" style="stroke:rgb(50,0,70);stroke-opacity:0,318;stroke-width:2" />
  <path d="M760,310 C768,310 772,285 776,260 L794,110 C798,85 802,60 810,60" style="stroke:rgb(50,0,70);stroke-opacity:0,177;stroke-width:2;fill:none" />
  <line x1="810" x2="860" y1="60" y2="60" style="stroke:rgb(50,0,70);stroke-opacity:0,177;stroke-width:2" />
</svg>